<svg xmlns="http://www.w3.org/2000/svg" width="117" height="97" xmlns:xlink="http://www.w3.org/1999/xlink">
  <defs>
    <path id="a" d="M54 108.2H0V0h108v108.2z"/>
    <path id="c" d="M37.3 29.7V.5H.5v29.2h36.8z"/>
  </defs>
  <g fill="none" fill-rule="evenodd">
    <g transform="translate(-9 -5.982)">
      <mask id="b" fill="#fff">
        <use xlink:href="#a"/>
      </mask>
      <path fill="#FEFEFE" stroke="#E8E8E8" stroke-width="4.2" d="M102.4 54.5c0 25-20.4 45.5-45.5 45.5-26 0-46-20.4-46-45.5C11 29.3 31.2 9 57 9c25 0 45.4 20.3 45.4 45.5" mask="url(#b)"/>
    </g>
    <path fill="#FFCB36" d="M78 59.7l-5.8-6.2 3.5-2.2-2.5-8.5-13.3-.4C56 35.2 48 30 39 29.7c-12.6-.4-23 8-23.4 19-.3 10.7 9.7 19.7 22.4 20 8.7.3 16.3-3.6 20.4-9.6L78 60z"/>
    <path fill="#D2A72A" d="M53 44c-.2 5-6.6 8.7-14.4 8.5-7.8-.2-14-4.4-14-9.3.3-5 6.7-8.8 14.5-8.5C47 35 53 39 53 44"/>
    <g transform="translate(78.912 42.437)">
      <mask id="d" fill="#fff">
        <use xlink:href="#c"/>
      </mask>
      <path fill="#FFCB36" d="M33.4 14.5L6 .5 4.3 9l-4 .6 2.6 8 21 10.6 1 .6c4 2 9 .4 11-3.7 2-3 0-8-3-10" mask="url(#d)"/>
    </g>
    <path fill="#7F6629" d="M73.2 43L71 45.6l1 3.5-3.5 3-.5 3 10 5-5.8-6 3.5-2m-37 1c3.4 0 6.7-.6 9.2-2 0-3-4-5.4-9-5.7-5 0-9 2-9 5v1c2 1 5 1.8 8 2"/>
    <path fill="#F7B119" d="M75.5 51.4H58c-4 6-11.3 10.2-19.7 10.2-11 0-20-6.8-22.3-16-.2 1-.4 2-.4 3-.3 10.8 9.7 19.8 22.4 20 8.7.4 16.3-3.5 20.4-9.5L78 60l-5.7-6.2 3.3-2zM105 65c-.3 0-1-.4-1.4-.7l-24-12L82 60l21 10.7 1 .5c4 2 9 .4 11-3.6.7-1.4 1-3 .8-4.4-1.4 3.6-3.8 5.3-11 2"/>
    <path fill="#7F6629" d="M73.2 43L71 45.6l1 3.5-3.5 3-.5 3 10 5-5.8-6 3.5-2"/>
    <path fill="#D2A72A" d="M107.5 69.3c-1.7-.8-2-3.6-.7-6 1.2-2.5 3.6-3.8 5.3-3 2 1 3 3.7 1 6.2-1 2.4-3 3.7-5 2.8"/>
    <path fill="#7F6629" d="M109.5 64.5c.8-1.5 1-3 .6-4.2-1 .3-2 1.4-3 3-1 1.4-1 3 0 4.2 1.4-.4 2.7-1.4 3.5-3"/>
    <path fill="#3CBEB5" d="M38.6 52.5c6 .2 11-2 13.2-5.2 0-1.6-.4-4.3-2.3-4.3-2.6 0-1.3-3.7-3.7-2.8-2.4 1-1.2 2-4 2.3-3 .4-1 3.2-3.7 3.4-2 0-2 1-1 2 0 1-2.3 1.3-3.2 3l5.7 1"/>
    <path fill="#2E9F98" d="M41.6 48.5c1-2 1.8-.7 1-3.7l-.6-2.3h-.2c-3 .4-1 3.2-3.7 3.4-2 0-2 1-1 2 0 1-2.3 1.3-3.2 3l5.7 1c2.5 0 4.8-.6 6.8-1-.7-2-4.5-1-3.7-3"/>
  </g>
</svg>
