<svg
  width="97"
  height="97"
  viewBox="0 0 117 117"
  xmlns="http://www.w3.org/2000/svg"
>
  <defs>
    <path id="a" d="M50.936 108.005H.436v-108h101v108z" />
  </defs>
  <g fill="none" fillRule="evenodd">
    <g transform="translate(-3 -5.982)">
      <path
        d="M90.912 45.54c0 25.153-20.35 45.54-45.456 45.54C20.35 91.08 0 70.694 0 45.54 0 20.39 20.35 0 45.456 0 70.56 0 90.912 20.39 90.912 45.54"
        transform="translate(5.44 8.93)"
        stroke="#E7E7E7"
        strokeWidth="4.2"
        fill="#FEFEFE"
      />
    </g>
    <path
      d="M49.614 31.488c1.358 2.765.218 6.11-2.547 7.468-2.766 1.358-6.11.218-7.47-2.546-1.357-2.765-.217-6.11 2.548-7.468 2.765-1.36 6.11-.22 7.47 2.546"
      fill="gray"
    />
    <path
      d="M44.113 36.972l-.773 2.342c1.097.276 2.222.25 3.43-.233l-1.1-2.236c-.615.22-1.068.217-1.557.128M42.964 31.337l-1.1-2.236c-1.122.66-1.86 1.552-2.31 2.59l2.39.788c.227-.44.47-.787 1.02-1.14M42.116 35.84l-2.235 1.098c.664 1.12 1.493 1.732 2.527 2.18l.818-2.324c-.44-.227-.755-.405-1.11-.954M45.103 30.926l.775-2.343c-1.097-.277-2.222-.254-3.43.232l1.1 2.235c.615-.217 1.066-.213 1.555-.124M41.5 33.286l-2.392-.867c-.276 1.1-.005 2.73.197 3.354l2.238-1.1c-.074-.324-.132-.9-.043-1.388M46.254 36.56l1.1 2.234c1.122-.66 1.855-1.55 2.307-2.586l-2.386-.79c-.228.442-.47.786-1.02 1.14M47.625 33.133c.217.616.154.945.065 1.434l2.367.826c.275-1.093.284-2.148-.198-3.358l-2.235 1.098zM47.052 31.968l2.237-1.1c-.37-.54-1.465-1.693-2.507-2.147l-.833 2.307c.44.228.89.683 1.102.94"
      fill="#989898"
    />
    <path
      d="M52.01 38.69l4.702-4.03-.464-.54 1.77-1.52-1.53-2.41c-.18-.286-.583-.322-.81-.072l-5.76 6.305 2.093 2.267z"
      fill="#ED3967"
    />
    <path fill="#CD1E4E" d="M52.065 38.91l4.835-4.145-.606-.705-4.835 4.144" />
    <path
      d="M45.217 33.29c-.503-.292-1.027-.1-1.473.283l-8.233 7.06c-.288.246-.3.342-.053.628l1.313 1.532c.36-.31.95-.284 1.273.093.324.378.26.964-.102 1.273l.557.648c.36-.31.95-.285 1.273.093.324.376.258.962-.102 1.272l1.686 1.967L52.8 38.325l-7.583-5.036z"
      fill="#B3B3B3"
    />
    <path
      d="M33.003 38.355l-16.48 1.258M32.696 34.62l-15.584-5.51M34.876 32.03L22.96 20.576"
      stroke="#FFCB36"
      strokeWidth="2"
    />
    <path
      d="M95.487 78.79l-14.44 12.38c-.897.77-2.25.667-3.018-.23L41.262 48.067l16.064-13.774c.898-.77 2.248-.665 3.02.23l35.372 41.252c.768.896.665 2.248-.233 3.016"
      fill="#3EBEB5"
    />
    <path
      d="M95.583 75.616L60.48 34.683c-.843-.985-2.326-1.098-3.31-.254l-4.433 3.8c.526.495 21.038 24.445 32.826 38.72 4.07 4.93.44 9.276-1.375 11.528l11.14-9.552c.986-.844 1.1-2.325.255-3.31"
      fill="#2E9E98"
    />
    <path
      d="M89.452 83.965l5.877-5.04c.984-.843 1.097-2.324.253-3.308L60.48 34.682c-.66-.77-2.1-1.525-3.596-.007.537.786 25.29 28.716 34.575 40.912 2.436 3.2-.404 7.02-2.008 8.378"
      fill="#025F5D"
    />
  </g>
</svg>
